<svg width="35" height="35" viewBox="0 0 35 35" fill="none" xmlns="http://www.w3.org/2000/svg">
<path d="M2.83276 10.9662H32.1671V28.309C32.1671 28.6317 32.0389 28.9412 31.8107 29.1694C31.5826 29.3976 31.2731 29.5258 30.9503 29.5258H4.04956C3.72685 29.5258 3.41735 29.3976 3.18916 29.1694C2.96096 28.9412 2.83276 28.6317 2.83276 28.309V10.9662Z" stroke="#C4C4C4" stroke-width="2" stroke-linecap="round" stroke-linejoin="round"/>
<path d="M22.3659 7.28164H2.51978C2.19706 7.28164 1.88756 7.40984 1.65937 7.63803C1.43118 7.86623 1.30298 8.17573 1.30298 8.49844V9.74942C1.30298 10.0721 1.43118 10.3816 1.65937 10.6098C1.88756 10.838 2.19706 10.9662 2.51978 10.9662H32.4803C32.803 10.9662 33.1125 10.838 33.3407 10.6098C33.5689 10.3816 33.6971 10.0721 33.6971 9.74942V8.49844C33.6971 8.17573 33.5689 7.86623 33.3407 7.63803C33.1125 7.40984 32.803 7.28164 32.4803 7.28164H22.3659Z" stroke="#C4C4C4" stroke-width="2" stroke-linecap="round" stroke-linejoin="round"/>
<path d="M9.64419 5.47422H7.07251V7.28164H9.64419V5.47422Z" stroke="#C4C4C4" stroke-width="2" stroke-linecap="round" stroke-linejoin="round"/>
<path d="M9.64419 5.47422H7.07251V7.28164H9.64419V5.47422Z" stroke="#C4C4C4" stroke-width="2" stroke-linecap="round" stroke-linejoin="round"/>
<path d="M27.9262 5.47422H25.3545V7.28164H27.9262V5.47422Z" stroke="#C4C4C4" stroke-width="2" stroke-linecap="round" stroke-linejoin="round"/>
<path d="M27.9262 5.47422H25.3545V7.28164H27.9262V5.47422Z" stroke="#C4C4C4" stroke-width="2" stroke-linecap="round" stroke-linejoin="round"/>
<path d="M6.58716 24.5164H27.9276" stroke="#C4C4C4" stroke-width="2" stroke-linecap="round" stroke-linejoin="round"/>
</svg>
