<svg width="50" height="50" viewBox="0 0 50 50" fill="none" xmlns="http://www.w3.org/2000/svg">
<path d="M30.6685 12.3304C29.989 11.5803 28.8255 11.5226 28.0748 12.2022L24.2668 15.6515C24.2656 15.6524 24.2649 15.6537 24.2639 15.6547C24.2354 15.6809 24.2098 15.7098 24.1864 15.7407C24.1863 15.7407 24.1863 15.7407 24.1863 15.7407C24.1801 15.7488 24.1744 15.757 24.1686 15.7653V15.7654C24.1499 15.7923 24.1331 15.8204 24.1185 15.8501C24.1158 15.8555 24.1124 15.8604 24.11 15.8659C24.11 15.8659 24.11 15.8659 24.11 15.866C24.0972 15.8938 24.0862 15.9228 24.0773 15.9526L23.1222 19.1726C23.1117 19.1717 23.1014 19.17 23.0909 19.1694C22.7759 19.1523 22.474 19.2619 22.2407 19.4734L20.7974 20.7808C20.3152 21.2175 20.2783 21.9649 20.715 22.4471L20.8183 22.561L6.96516 35.109L5.82746 36.1394C5.11672 36.7832 5.06213 37.8851 5.70588 38.5959L9.77317 43.0861C10.0849 43.4305 10.5122 43.6328 10.9762 43.6556C11.0056 43.6571 11.0348 43.6578 11.064 43.6578C11.4961 43.6578 11.9071 43.4997 12.2295 43.2076L13.3671 42.1771L27.2203 29.6293L27.3237 29.7433C27.5352 29.9769 27.8251 30.1142 28.1398 30.1298C28.1597 30.1308 28.1795 30.1311 28.1993 30.1311C28.4925 30.1311 28.7713 30.0239 28.99 29.8258L30.4332 28.5184C30.6668 28.3069 30.804 28.0171 30.8196 27.7025C30.8201 27.692 30.8194 27.6815 30.8196 27.671L34.1113 27.0393C34.1117 27.0393 34.1122 27.0392 34.1128 27.0392L34.1129 27.0391L34.1181 27.038C34.152 27.0316 34.1846 27.0218 34.2164 27.0104C34.2164 27.0103 34.2164 27.0103 34.2165 27.0103C34.2166 27.0103 34.2166 27.0103 34.2166 27.0103C34.2265 27.0068 34.2358 27.0024 34.2454 26.9985C34.2708 26.9881 34.2952 26.9761 34.3189 26.9627C34.3189 26.9627 34.319 26.9627 34.319 26.9626C34.3278 26.9576 34.3365 26.9529 34.345 26.9476H34.3451C34.3451 26.9476 34.3451 26.9476 34.3452 26.9476C34.3761 26.928 34.4056 26.9064 34.4327 26.882C34.434 26.881 34.4353 26.8804 34.4364 26.8794L38.2447 23.4301C38.9949 22.7504 39.0525 21.5869 38.3729 20.8364L30.6685 12.3304ZM11.3446 42.2304C11.2613 42.3056 11.1572 42.3441 11.0413 42.3388C10.9292 42.3332 10.8258 42.2843 10.7504 42.2011L6.68323 37.7108C6.60783 37.6275 6.56926 37.5198 6.57483 37.4075C6.58039 37.2954 6.62942 37.192 6.71262 37.1166L7.36174 36.5286L11.9938 41.6426L11.3446 42.2304ZM12.9707 40.7574L10.6547 38.2005L8.33879 35.6435L21.7033 23.5382L24.3036 26.4089L25.0593 27.2432L26.3354 28.6521L12.9707 40.7574ZM30.1569 26.4557L24.2661 19.9521L25.0079 17.4517L32.6548 25.8939L32.7185 25.9643L30.1569 26.4557ZM37.3597 22.4529L34.0402 25.4597L29.8404 20.8229L25.6405 16.1862L28.9599 13.1795C29.1716 12.9878 29.4998 13.0039 29.6914 13.2155L37.3957 21.7215C37.5874 21.933 37.5712 22.2612 37.3597 22.4529Z" fill="#C4C4C4"/>
<path d="M21.9631 26.219C21.8457 26.0894 21.6816 26.0118 21.5071 26.0031C21.3298 25.9936 21.1617 26.0556 21.032 26.1729L17.5437 29.3326C17.2737 29.577 17.2531 29.9938 17.4975 30.2637L19.2277 32.174C19.3451 32.3037 19.5092 32.3813 19.6837 32.3899C19.6946 32.3905 19.7056 32.3907 19.7163 32.3907C19.8796 32.3907 20.0373 32.3303 20.1588 32.2202L23.6473 29.0605C23.9171 28.816 23.9377 28.3993 23.6934 28.1294L21.9631 26.219Z" fill="#C4C4C4"/>
<path d="M35.8681 15.244C35.9983 15.3878 36.1772 15.4607 36.357 15.4607C36.5147 15.4607 36.673 15.4044 36.7991 15.2901L40.8689 11.6039C41.1387 11.3595 41.1594 10.9427 40.915 10.6728C40.6706 10.4031 40.2538 10.3823 39.9839 10.6267L35.9142 14.313C35.6444 14.5574 35.6237 14.9742 35.8681 15.244Z" fill="#C4C4C4"/>
<path d="M33.6197 12.6697C33.7032 12.7048 33.7898 12.7214 33.8751 12.7214C34.1325 12.7214 34.377 12.5699 34.483 12.318L36.6136 7.25722C36.7548 6.92168 36.5974 6.53505 36.2619 6.39384C35.9263 6.25273 35.5398 6.40996 35.3985 6.7456L33.2678 11.8063C33.1267 12.1419 33.2841 12.5285 33.6197 12.6697Z" fill="#C4C4C4"/>
<path d="M44.7139 15.7254C44.6064 15.3775 44.2368 15.1828 43.8896 15.29L38.6433 16.911C38.2954 17.0186 38.1005 17.3876 38.2081 17.7354C38.2955 18.0185 38.5561 18.2001 38.8376 18.2001C38.902 18.2001 38.9676 18.1906 39.0323 18.1706L44.2786 16.5497C44.6265 16.4423 44.8214 16.0732 44.7139 15.7254Z" fill="#C4C4C4"/>
<path d="M8.0383 31.879C8.19787 31.879 8.35803 31.8213 8.48469 31.7047L9.07864 31.1576C9.34641 30.9109 9.3636 30.4938 9.11682 30.2261C8.87004 29.9582 8.45315 29.9413 8.18537 30.1879L7.59153 30.735C7.32375 30.9815 7.30657 31.3986 7.55325 31.6664C7.68332 31.8075 7.86047 31.879 8.0383 31.879Z" fill="#C4C4C4"/>
<path d="M10.3502 29.7496C10.5099 29.7496 10.67 29.6919 10.7967 29.5753L14.7144 25.9667C14.9822 25.72 14.9993 25.3029 14.7528 25.0351C14.506 24.7674 14.0891 24.7504 13.8212 24.997L9.90354 28.6056C9.63577 28.8522 9.61858 29.2692 9.86526 29.537C9.99524 29.6781 10.1725 29.7496 10.3502 29.7496Z" fill="#C4C4C4"/>
<path d="M15.9709 24.5725C16.1305 24.5725 16.2907 24.5148 16.4174 24.3982L17.7073 23.2101C17.9751 22.9636 17.9922 22.5465 17.7455 22.2787C17.4989 22.0108 17.0817 21.9938 16.814 22.2404L15.5242 23.4285C15.2563 23.6751 15.2392 24.0922 15.4858 24.36C15.6158 24.5012 15.7931 24.5725 15.9709 24.5725Z" fill="#C4C4C4"/>
<path d="M23.0691 35.3466L17.1103 40.6938C16.8394 40.9368 16.8168 41.3536 17.0599 41.6246C17.1899 41.7696 17.37 41.8436 17.5507 41.8436C17.7073 41.8436 17.8647 41.788 17.9906 41.675L23.9497 36.3277C24.2206 36.0846 24.2432 35.6678 24.0001 35.3968C23.7568 35.1261 23.3402 35.1034 23.0691 35.3466Z" fill="#C4C4C4"/>
<path d="M26.0943 32.5365L24.9296 33.5815C24.6588 33.8247 24.6361 34.2415 24.8792 34.5124C25.0093 34.6574 25.1893 34.7313 25.37 34.7313C25.5266 34.7313 25.6841 34.6758 25.8099 34.5628L26.9746 33.5178C27.2456 33.2746 27.2681 32.8578 27.0252 32.587C26.7821 32.316 26.3652 32.2934 26.0943 32.5365Z" fill="#C4C4C4"/>
</svg>
