<svg width="35" height="35" viewBox="0 0 35 35" fill="none" xmlns="http://www.w3.org/2000/svg">
<path d="M14.9663 8.31481C13.975 7.22046 12.2775 7.13626 11.1823 8.12788L5.6267 13.1601L5.62243 13.1648C5.58082 13.203 5.5435 13.2451 5.5093 13.2903C5.50033 13.3021 5.49192 13.3141 5.48337 13.3262C5.45616 13.3654 5.43165 13.4066 5.41028 13.4499C5.40644 13.4577 5.40145 13.465 5.39788 13.4729C5.37922 13.5136 5.36312 13.5559 5.35016 13.5995L3.95676 18.2971C3.94151 18.2958 3.92641 18.2934 3.91116 18.2926C3.45154 18.2676 3.01115 18.4275 2.67078 18.7361L0.565011 20.6434C-0.138527 21.2805 -0.192238 22.371 0.444765 23.0744L0.595509 23.2407L1.73658 24.5086L2.74331 25.6851L8.57906 32.2503L9.30853 32.9798L10.038 33.7092C10.038 33.7092 10.818 34.2602 11.2771 34.283C11.3062 34.2844 11.3351 34.285 11.364 34.285C11.7917 34.285 12.1985 34.1286 12.5175 33.8395L14.6231 31.9322C14.9639 31.6236 15.1641 31.2007 15.1867 30.7418C15.1876 30.7264 15.1864 30.7112 15.1867 30.6958L19.9891 29.7743L19.9914 29.774L19.9991 29.7723C20.0485 29.763 20.0961 29.7486 20.1425 29.7321C20.1569 29.727 20.1708 29.7204 20.1849 29.7147C20.2219 29.6995 20.2575 29.682 20.292 29.6624C20.3048 29.6552 20.3178 29.6482 20.3302 29.6405C20.3752 29.6119 20.4185 29.5804 20.4581 29.5448L20.4634 29.5409L26.0195 24.5086C27.1141 23.517 27.198 21.8195 26.2065 20.7246L14.9663 8.31481ZM14.2199 28.9227L5.62571 19.4345L6.70794 15.7864L17.8643 28.1032L17.9571 28.2059L14.2199 28.9227ZM24.7284 23.083L19.8854 27.4696L13.7581 20.7049L7.63075 13.9403L12.4736 9.55362C12.7825 9.27394 13.2613 9.29745 13.5409 9.60619L24.7809 22.0158C25.0606 22.3244 25.037 22.8033 24.7284 23.083Z" fill="#C4C4C4"/>
<path d="M22.0513 12.9874C22.2413 13.1971 22.5023 13.3035 22.7646 13.3035C22.9947 13.3035 23.2256 13.2213 23.4097 13.0546L29.3472 7.67667C29.7408 7.32006 29.771 6.71198 29.4144 6.31832C29.0579 5.92481 28.4499 5.89446 28.0561 6.25108L22.1186 11.629C21.7249 11.9857 21.6949 12.5937 22.0513 12.9874Z" fill="#C4C4C4"/>
<path d="M18.771 9.23165C18.8928 9.2828 19.0191 9.30702 19.1437 9.30702C19.5191 9.30702 19.8758 9.08604 20.0306 8.71846L23.1389 1.33515C23.345 0.845606 23.1153 0.281549 22.6258 0.0755306C22.1362 -0.130345 21.5723 0.0990386 21.3661 0.588723L18.2576 7.97204C18.0517 8.46158 18.2814 9.02564 18.771 9.23165Z" fill="#C4C4C4"/>
<path d="M34.9569 13.6897C34.8001 13.182 34.2608 12.8981 33.7543 13.0545L26.1003 15.4195C25.5927 15.5763 25.3083 16.1147 25.4653 16.6221C25.5928 17.0351 25.9731 17.3001 26.3837 17.3001C26.4777 17.3001 26.5733 17.2863 26.6678 17.2571L34.3218 14.8923C34.8294 14.7356 35.1138 14.197 34.9569 13.6897Z" fill="#C4C4C4"/>
</svg>
