<svg width="40" height="38" viewBox="0 0 40 38" fill="none" xmlns="http://www.w3.org/2000/svg">
<path d="M12.1018 0L0 16.107L7.89828 34.641L27.8982 37.0677L40 20.9608L32.1017 2.42701L12.1018 0ZM26.6888 34.2294L9.75188 32.1743L3.0632 16.4786L13.3114 2.83852L30.2483 4.89387L36.9368 20.5891L26.6888 34.2294Z" fill="#C4C4C4"/>
<path d="M23.3853 10.1253C21.1391 9.22145 18.6756 9.24639 16.4486 10.1957C14.2213 11.1447 12.4969 12.9044 11.5932 15.1503C10.6894 17.3965 10.7145 19.86 11.6636 22.0873C12.6127 24.3146 14.3723 26.0388 16.6183 26.9424C17.7125 27.3831 18.858 27.6027 20.003 27.6027C21.2084 27.6027 22.4129 27.3591 23.555 26.8723C25.7823 25.923 27.5067 24.1636 28.4103 21.9174C29.3142 19.6714 29.289 17.2081 28.34 14.9809C27.3909 12.7536 25.6315 11.029 23.3853 10.1253ZM17.4961 12.6539C18.3017 12.3107 19.151 12.1388 20.001 12.1388C20.8082 12.1388 21.6163 12.2936 22.3879 12.6042C22.9854 12.8447 23.5338 13.1674 24.0215 13.5606C22.1004 13.0574 20.0184 13.1796 18.0844 14.0024C16.1335 14.8344 14.5939 16.2669 13.6283 18.0234C13.68 17.3878 13.8274 16.7565 14.0721 16.1479C14.7094 14.564 15.9255 13.3232 17.4961 12.6539ZM25.9315 20.92C25.2941 22.5037 24.0781 23.7447 22.5075 24.4139C20.9367 25.083 19.1994 25.1008 17.6159 24.4635C16.6608 24.0792 15.832 23.4835 15.1764 22.7275C15.0608 20.0224 16.6116 17.5355 19.1314 16.461C21.6373 15.3951 24.4907 15.9856 26.3659 17.9232C26.4639 18.931 26.32 19.954 25.9315 20.92Z" fill="#C4C4C4"/>
</svg>
