<svg width="35" height="35" viewBox="0 0 35 35" fill="none" xmlns="http://www.w3.org/2000/svg">
<path d="M17.5 2.1875L3.28125 6.86875V13.125C3.28125 29.1047 17.0953 32.7469 17.2375 32.8125H17.5L17.7625 32.7469C17.9047 32.7469 31.7188 29.0719 31.7188 13.0594V6.86875L17.5 2.1875ZM29.5312 13.125C29.5312 26.3594 19.3484 30.0234 17.5 30.625C15.6516 30.0234 5.46875 26.3594 5.46875 13.125V8.44375L17.5 4.42969L29.5312 8.44375V13.125Z" fill="#C4C4C4"/>
<path d="M12.6766 16.4063L11.1234 17.9484L13.6281 20.4531C13.8316 20.6578 14.0736 20.8203 14.3402 20.931C14.6067 21.0418 14.8926 21.0987 15.1812 21.0984C15.7605 21.096 16.3151 20.8639 16.7234 20.4531L23.8766 13.3109L22.3234 11.7578L15.1812 18.9109L12.6766 16.4063Z" fill="#C4C4C4"/>
</svg>
