<svg width="35" height="35" viewBox="0 0 35 35" fill="none" xmlns="http://www.w3.org/2000/svg">
<path d="M4.34063 10.8294C4.3788 10.8333 4.41503 10.8345 4.4519 10.8345C4.74238 10.8345 5.02314 10.7207 5.23016 10.5124L6.15785 9.58339L12.589 16.0132L3.04031 25.5606C2.27111 26.3298 1.90172 27.3927 2.00264 28.5526C2.09838 29.6407 2.60298 30.692 3.41164 31.4981L3.49122 31.5802C4.43638 32.5228 5.65325 33.0054 6.81319 33.0054C7.79523 33.0054 8.73651 32.6606 9.44036 31.9567L16.5514 24.847L24.5442 32.9465C25.2241 33.6265 26.1576 34.0017 27.1727 34.0017C28.3721 34.0017 29.5812 33.4796 30.5574 32.5008C31.3796 31.6792 31.8829 30.6292 31.9774 29.5418C32.077 28.3831 31.7096 27.3202 30.9436 26.5562L24.79 20.3179C26.8621 20.3153 28.845 19.4219 30.6505 17.6163L33.1626 15.1043C35.9107 12.3574 35.0969 9.12277 33.8095 6.03563L33.1762 4.51924L29.1128 8.58647C28.5137 9.18682 27.9742 9.53163 27.5129 9.61121C27.216 9.66425 26.756 9.65261 26.0878 8.98174L26.0095 8.90605C25.3477 8.24425 24.8347 7.46664 26.4125 5.88749L30.4798 1.82284L28.9647 1.1895C25.8782 -0.0991836 22.6442 -0.907844 19.8973 1.83642L17.3814 4.34974C14.5686 7.16646 13.7651 10.4018 15.0602 13.562C14.9819 13.6267 14.9063 13.6946 14.8338 13.7664L14.1429 14.4573L7.71177 8.02752L8.72357 7.01573C8.95711 6.78219 9.07356 6.45484 9.03927 6.12491C9.00498 5.79627 8.82578 5.50063 8.5489 5.31884L3.44917 1.96904C3.01314 1.68375 2.43608 1.74003 2.06668 2.11072L0.320623 3.85937C-0.0468322 4.22812 -0.105055 4.80582 0.18024 5.24056L3.53133 10.339C3.71441 10.6152 4.01199 10.7951 4.34063 10.8294ZM29.3839 28.1043C29.6873 28.4077 29.8296 28.8495 29.7856 29.3516C29.7364 29.9241 29.4596 30.4889 28.9375 31.0129C28.4361 31.5142 27.7924 31.8015 27.172 31.8015C26.8699 31.8015 26.439 31.731 26.1046 31.3972L16.1865 21.3452L19.4729 18.0588L29.3839 28.1043ZM16.391 15.3223C16.5145 15.1987 16.673 15.1023 16.8736 15.0266L18.0639 14.5809L17.4513 13.4675C16.0222 10.8669 16.5236 8.32252 18.9386 5.90625L21.4545 3.39293C22.7367 2.10943 24.1625 1.86424 26.5555 2.63603L24.8586 4.33163C22.0166 7.17487 23.3868 9.3919 24.4646 10.4697L24.5429 10.5454C25.8193 11.8256 27.0685 11.9201 27.8914 11.7784C28.8217 11.6154 29.7313 11.0797 30.67 10.141L32.3656 8.44415C33.136 10.841 32.8915 12.2662 31.6086 13.5478L29.0966 16.0611C26.8486 18.3091 24.4646 18.7096 21.82 17.3045L20.9634 16.4363C20.6212 16.0902 20.1962 15.8211 19.7 15.6341L19.0382 15.385L17.0547 17.3672L15.7 16.0132L16.391 15.3223ZM15.4988 18.9231L13.5141 20.9079L13.7631 21.5697C13.9475 22.0613 14.2166 22.4844 14.5582 22.8254L15.0065 23.2788L7.88515 30.4015C7.20911 31.0789 5.93402 30.9094 5.05743 30.0367L4.97786 29.9532C4.52307 29.4997 4.24489 28.9349 4.19572 28.3611C4.15173 27.861 4.29405 27.4172 4.59617 27.1151L14.1448 17.5678L15.4988 18.9231ZM2.99243 4.29928L6.21414 6.41667L4.62981 8.001L2.51112 4.77995L2.99243 4.29928Z" fill="#C4C4C4"/>
</svg>
